<mxfile host="app.diagrams.net" modified="2023-03-29T14:05:58.412Z" agent="Mozilla/5.0 (Windows NT 10.0; Win64; x64) AppleWebKit/537.36 (KHTML, like Gecko) Chrome/111.0.0.0 Safari/537.36 Edg/111.0.1661.54" version="21.1.1" etag="EijghGlPO4qu7hSTWt8s" type="github">
  <diagram name="Page-1" id="Z5Mavj7C7oNfC9e5rIul">
    <mxGraphModel>
      <root>
        <mxCell id="0" />
        <mxCell id="1" parent="0" />
      </root>
    </mxGraphModel>
  </diagram>
</mxfile>
